<mxfile host="app.diagrams.net" modified="2022-08-20T10:43:38.225Z" agent="5.0 (Windows NT 10.0; Win64; x64) AppleWebKit/537.36 (KHTML, like Gecko) Chrome/104.0.0.0 Safari/537.36" etag="aazGpnq7xaksOS5B6Ca0" version="20.2.5" type="github">
  <diagram id="Xd4mPlgTEizZp6tIqquG" name="Page-1">
    <mxGraphModel dx="1422" dy="762" grid="1" gridSize="10" guides="1" tooltips="1" connect="1" arrows="1" fold="1" page="1" pageScale="1" pageWidth="850" pageHeight="1100" math="0" shadow="0">
      <root>
        <mxCell id="0" />
        <mxCell id="1" parent="0" />
        <mxCell id="kjgI0e7wwDbde9Z0vBoG-1" value="START" style="ellipse;whiteSpace=wrap;html=1;fillColor=#66CC00;" vertex="1" parent="1">
          <mxGeometry x="130" y="130" width="120" height="40" as="geometry" />
        </mxCell>
        <mxCell id="kjgI0e7wwDbde9Z0vBoG-5" value="" style="edgeStyle=orthogonalEdgeStyle;rounded=0;orthogonalLoop=1;jettySize=auto;html=1;fillColor=#99FFCC;" edge="1" parent="1" source="kjgI0e7wwDbde9Z0vBoG-2" target="kjgI0e7wwDbde9Z0vBoG-4">
          <mxGeometry relative="1" as="geometry" />
        </mxCell>
        <mxCell id="kjgI0e7wwDbde9Z0vBoG-2" value="INPUT: int a" style="shape=parallelogram;perimeter=parallelogramPerimeter;whiteSpace=wrap;html=1;fixedSize=1;fillColor=#66FFFF;" vertex="1" parent="1">
          <mxGeometry x="130" y="210" width="120" height="30" as="geometry" />
        </mxCell>
        <mxCell id="kjgI0e7wwDbde9Z0vBoG-3" value="" style="endArrow=classic;html=1;rounded=0;" edge="1" parent="1">
          <mxGeometry width="50" height="50" relative="1" as="geometry">
            <mxPoint x="189.5" y="170" as="sourcePoint" />
            <mxPoint x="190" y="210" as="targetPoint" />
          </mxGeometry>
        </mxCell>
        <mxCell id="kjgI0e7wwDbde9Z0vBoG-18" value="" style="edgeStyle=orthogonalEdgeStyle;rounded=0;orthogonalLoop=1;jettySize=auto;html=1;" edge="1" parent="1" source="kjgI0e7wwDbde9Z0vBoG-4" target="kjgI0e7wwDbde9Z0vBoG-8">
          <mxGeometry relative="1" as="geometry" />
        </mxCell>
        <mxCell id="kjgI0e7wwDbde9Z0vBoG-4" value="INPUT: int b" style="shape=parallelogram;perimeter=parallelogramPerimeter;whiteSpace=wrap;html=1;fixedSize=1;fillColor=#66FFFF;" vertex="1" parent="1">
          <mxGeometry x="130" y="280" width="120" height="40" as="geometry" />
        </mxCell>
        <mxCell id="kjgI0e7wwDbde9Z0vBoG-11" value="" style="edgeStyle=orthogonalEdgeStyle;rounded=0;orthogonalLoop=1;jettySize=auto;html=1;fillColor=#FFFF33;" edge="1" parent="1" source="kjgI0e7wwDbde9Z0vBoG-8" target="kjgI0e7wwDbde9Z0vBoG-10">
          <mxGeometry relative="1" as="geometry" />
        </mxCell>
        <mxCell id="kjgI0e7wwDbde9Z0vBoG-8" value="square a &lt;br&gt;then&lt;br&gt;square b" style="whiteSpace=wrap;html=1;fillColor=#FFFF33;" vertex="1" parent="1">
          <mxGeometry x="125" y="370" width="130" height="60" as="geometry" />
        </mxCell>
        <mxCell id="kjgI0e7wwDbde9Z0vBoG-13" value="" style="edgeStyle=orthogonalEdgeStyle;rounded=0;orthogonalLoop=1;jettySize=auto;html=1;" edge="1" parent="1" source="kjgI0e7wwDbde9Z0vBoG-10" target="kjgI0e7wwDbde9Z0vBoG-12">
          <mxGeometry relative="1" as="geometry" />
        </mxCell>
        <mxCell id="kjgI0e7wwDbde9Z0vBoG-10" value="&amp;nbsp;sum = square a&amp;nbsp;&lt;br&gt;+ square b" style="whiteSpace=wrap;html=1;fillColor=#FFFF33;" vertex="1" parent="1">
          <mxGeometry x="130" y="480" width="120" height="60" as="geometry" />
        </mxCell>
        <mxCell id="kjgI0e7wwDbde9Z0vBoG-15" value="" style="edgeStyle=orthogonalEdgeStyle;rounded=0;orthogonalLoop=1;jettySize=auto;html=1;" edge="1" parent="1" source="kjgI0e7wwDbde9Z0vBoG-12" target="kjgI0e7wwDbde9Z0vBoG-14">
          <mxGeometry relative="1" as="geometry" />
        </mxCell>
        <mxCell id="kjgI0e7wwDbde9Z0vBoG-12" value="PRINT sum" style="shape=parallelogram;perimeter=parallelogramPerimeter;whiteSpace=wrap;html=1;fixedSize=1;fillColor=#66FFFF;" vertex="1" parent="1">
          <mxGeometry x="130" y="580" width="120" height="30" as="geometry" />
        </mxCell>
        <mxCell id="kjgI0e7wwDbde9Z0vBoG-14" value="END" style="ellipse;whiteSpace=wrap;html=1;fillColor=#FF6666;" vertex="1" parent="1">
          <mxGeometry x="125" y="630" width="120" height="30" as="geometry" />
        </mxCell>
        <mxCell id="kjgI0e7wwDbde9Z0vBoG-22" value="" style="edgeStyle=orthogonalEdgeStyle;rounded=0;orthogonalLoop=1;jettySize=auto;html=1;fillColor=#FFFF33;exitX=0.5;exitY=1;exitDx=0;exitDy=0;" edge="1" parent="1" source="kjgI0e7wwDbde9Z0vBoG-39" target="kjgI0e7wwDbde9Z0vBoG-21">
          <mxGeometry relative="1" as="geometry">
            <mxPoint x="680" y="260" as="sourcePoint" />
          </mxGeometry>
        </mxCell>
        <mxCell id="kjgI0e7wwDbde9Z0vBoG-20" value="START" style="ellipse;whiteSpace=wrap;html=1;fillColor=#66CC00;" vertex="1" parent="1">
          <mxGeometry x="620" y="130" width="120" height="40" as="geometry" />
        </mxCell>
        <mxCell id="kjgI0e7wwDbde9Z0vBoG-24" value="" style="edgeStyle=orthogonalEdgeStyle;rounded=0;orthogonalLoop=1;jettySize=auto;html=1;fillColor=#FFFF33;" edge="1" parent="1" source="kjgI0e7wwDbde9Z0vBoG-21" target="kjgI0e7wwDbde9Z0vBoG-23">
          <mxGeometry relative="1" as="geometry" />
        </mxCell>
        <mxCell id="kjgI0e7wwDbde9Z0vBoG-21" value="INPUT: int n" style="shape=parallelogram;perimeter=parallelogramPerimeter;whiteSpace=wrap;html=1;fixedSize=1;fillColor=#66FFFF;" vertex="1" parent="1">
          <mxGeometry x="610" y="305" width="140" height="30" as="geometry" />
        </mxCell>
        <mxCell id="kjgI0e7wwDbde9Z0vBoG-26" value="" style="edgeStyle=orthogonalEdgeStyle;rounded=0;orthogonalLoop=1;jettySize=auto;html=1;fillColor=#FFFF33;" edge="1" parent="1" source="kjgI0e7wwDbde9Z0vBoG-23">
          <mxGeometry relative="1" as="geometry">
            <mxPoint x="830" y="400" as="targetPoint" />
          </mxGeometry>
        </mxCell>
        <mxCell id="kjgI0e7wwDbde9Z0vBoG-32" value="" style="edgeStyle=orthogonalEdgeStyle;rounded=0;orthogonalLoop=1;jettySize=auto;html=1;fillColor=#FFFF33;" edge="1" parent="1" source="kjgI0e7wwDbde9Z0vBoG-23">
          <mxGeometry relative="1" as="geometry">
            <mxPoint x="490" y="450" as="targetPoint" />
            <Array as="points">
              <mxPoint x="490" y="400" />
              <mxPoint x="490" y="450" />
            </Array>
          </mxGeometry>
        </mxCell>
        <mxCell id="kjgI0e7wwDbde9Z0vBoG-23" value="WHILE n&amp;lt;0" style="rhombus;whiteSpace=wrap;html=1;fillColor=#66FFFF;" vertex="1" parent="1">
          <mxGeometry x="630" y="360" width="100" height="80" as="geometry" />
        </mxCell>
        <mxCell id="kjgI0e7wwDbde9Z0vBoG-28" value="" style="edgeStyle=orthogonalEdgeStyle;rounded=0;orthogonalLoop=1;jettySize=auto;html=1;fillColor=#FFFF33;" edge="1" parent="1" source="kjgI0e7wwDbde9Z0vBoG-25" target="kjgI0e7wwDbde9Z0vBoG-27">
          <mxGeometry relative="1" as="geometry" />
        </mxCell>
        <mxCell id="kjgI0e7wwDbde9Z0vBoG-25" value="print result" style="shape=parallelogram;perimeter=parallelogramPerimeter;whiteSpace=wrap;html=1;fixedSize=1;fillColor=#66FFFF;" vertex="1" parent="1">
          <mxGeometry x="830" y="386.25" width="120" height="27.5" as="geometry" />
        </mxCell>
        <mxCell id="kjgI0e7wwDbde9Z0vBoG-27" value="END" style="ellipse;whiteSpace=wrap;html=1;fillColor=#FF6666;" vertex="1" parent="1">
          <mxGeometry x="830" y="500" width="120" height="37.5" as="geometry" />
        </mxCell>
        <mxCell id="kjgI0e7wwDbde9Z0vBoG-30" value="TRUE" style="text;html=1;strokeColor=none;fillColor=none;align=center;verticalAlign=middle;whiteSpace=wrap;rounded=0;" vertex="1" parent="1">
          <mxGeometry x="740" y="365" width="70" height="40" as="geometry" />
        </mxCell>
        <mxCell id="kjgI0e7wwDbde9Z0vBoG-33" value="FALSE" style="text;html=1;strokeColor=none;fillColor=none;align=center;verticalAlign=middle;whiteSpace=wrap;rounded=0;" vertex="1" parent="1">
          <mxGeometry x="570" y="370" width="60" height="30" as="geometry" />
        </mxCell>
        <mxCell id="kjgI0e7wwDbde9Z0vBoG-38" value="" style="edgeStyle=orthogonalEdgeStyle;rounded=0;orthogonalLoop=1;jettySize=auto;html=1;fillColor=#FFFF33;" edge="1" parent="1" source="kjgI0e7wwDbde9Z0vBoG-35" target="kjgI0e7wwDbde9Z0vBoG-37">
          <mxGeometry relative="1" as="geometry" />
        </mxCell>
        <mxCell id="kjgI0e7wwDbde9Z0vBoG-35" value="INPUT: int num" style="shape=parallelogram;perimeter=parallelogramPerimeter;whiteSpace=wrap;html=1;fixedSize=1;fillColor=#66FFFF;" vertex="1" parent="1">
          <mxGeometry x="420" y="455" width="130" height="30" as="geometry" />
        </mxCell>
        <mxCell id="kjgI0e7wwDbde9Z0vBoG-37" value="result = result + num" style="whiteSpace=wrap;html=1;fillColor=#FFFF33;" vertex="1" parent="1">
          <mxGeometry x="425" y="530" width="120" height="60" as="geometry" />
        </mxCell>
        <mxCell id="kjgI0e7wwDbde9Z0vBoG-39" value="int result = 0" style="shape=parallelogram;perimeter=parallelogramPerimeter;whiteSpace=wrap;html=1;fixedSize=1;fillColor=#66FFFF;" vertex="1" parent="1">
          <mxGeometry x="615" y="215" width="130" height="40" as="geometry" />
        </mxCell>
        <mxCell id="kjgI0e7wwDbde9Z0vBoG-40" value="" style="endArrow=classic;html=1;rounded=0;fillColor=#FFFF33;exitX=0.5;exitY=1;exitDx=0;exitDy=0;entryX=0.5;entryY=0;entryDx=0;entryDy=0;" edge="1" parent="1" source="kjgI0e7wwDbde9Z0vBoG-20" target="kjgI0e7wwDbde9Z0vBoG-39">
          <mxGeometry width="50" height="50" relative="1" as="geometry">
            <mxPoint x="660" y="220" as="sourcePoint" />
            <mxPoint x="710" y="170" as="targetPoint" />
          </mxGeometry>
        </mxCell>
        <mxCell id="kjgI0e7wwDbde9Z0vBoG-41" value="" style="endArrow=classic;html=1;rounded=0;fillColor=#FFFF33;exitX=0.5;exitY=1;exitDx=0;exitDy=0;" edge="1" parent="1" source="kjgI0e7wwDbde9Z0vBoG-37">
          <mxGeometry width="50" height="50" relative="1" as="geometry">
            <mxPoint x="460" y="630" as="sourcePoint" />
            <mxPoint x="680" y="600" as="targetPoint" />
            <Array as="points">
              <mxPoint x="485" y="640" />
              <mxPoint x="680" y="640" />
            </Array>
          </mxGeometry>
        </mxCell>
        <mxCell id="kjgI0e7wwDbde9Z0vBoG-42" value="decrease n by 1" style="rounded=0;whiteSpace=wrap;html=1;fillColor=#FFFF33;" vertex="1" parent="1">
          <mxGeometry x="620" y="530" width="120" height="60" as="geometry" />
        </mxCell>
        <mxCell id="kjgI0e7wwDbde9Z0vBoG-44" value="" style="endArrow=classic;html=1;rounded=0;fillColor=#FFFF33;exitX=0.5;exitY=0;exitDx=0;exitDy=0;entryX=0.5;entryY=1;entryDx=0;entryDy=0;" edge="1" parent="1" source="kjgI0e7wwDbde9Z0vBoG-42" target="kjgI0e7wwDbde9Z0vBoG-23">
          <mxGeometry width="50" height="50" relative="1" as="geometry">
            <mxPoint x="650" y="520" as="sourcePoint" />
            <mxPoint x="700" y="470" as="targetPoint" />
          </mxGeometry>
        </mxCell>
      </root>
    </mxGraphModel>
  </diagram>
</mxfile>
